<?xml version="1.0" encoding="UTF-8" standalone="no"?>
<svg
   xmlns:dc="http://purl.org/dc/elements/1.1/"
   xmlns:cc="http://creativecommons.org/ns#"
   xmlns:rdf="http://www.w3.org/1999/02/22-rdf-syntax-ns#"
   xmlns:svg="http://www.w3.org/2000/svg"
   xmlns="http://www.w3.org/2000/svg"
   xmlns:sodipodi="http://sodipodi.sourceforge.net/DTD/sodipodi-0.dtd"
   xmlns:inkscape="http://www.inkscape.org/namespaces/inkscape"
   version="1.1"
   id="Layer_1"
   x="0px"
   y="0px"
   width="40"
   height="40"
   viewBox="0 0 40 40"
   enable-background="new 0 0 44 44"
   inkscape:version="0.91 r13725"
   sodipodi:docname="biddingfox.svg">
  <metadata
     id="metadata15">
    <rdf:RDF>
      <cc:Work
         rdf:about="">
        <dc:format>image/svg+xml</dc:format>
        <dc:type
           rdf:resource="http://purl.org/dc/dcmitype/StillImage" />
        <dc:title></dc:title>
      </cc:Work>
    </rdf:RDF>
  </metadata>
  <defs
     id="defs13" />
  <sodipodi:namedview
     pagecolor="#ffffff"
     bordercolor="#666666"
     borderopacity="1"
     objecttolerance="10"
     gridtolerance="10"
     guidetolerance="10"
     inkscape:pageopacity="0"
     inkscape:pageshadow="2"
     inkscape:window-width="1680"
     inkscape:window-height="1013"
     id="namedview11"
     showgrid="false"
     inkscape:zoom="18.363636"
     inkscape:cx="22"
     inkscape:cy="22"
     inkscape:window-x="240"
     inkscape:window-y="0"
     inkscape:window-maximized="1"
     inkscape:current-layer="Layer_1" />
  <path
     d="m 39.942727,18.866364 c -8.829091,0.9 -15.948182,7.548181 -17.581818,16.141818 -0.231818,1.218182 -0.363636,2.47 -0.363636,3.754545 0,0.382728 0.03545,0.756364 0.05727,1.132728 2.791819,-0.284546 5.406364,-1.154546 7.738182,-2.468182 C 35.881818,34 40,27.484545 40,20.000909 40,19.618182 39.96364,19.244545 39.94273,18.866364"
     id="path3"
     inkscape:connector-curvature="0"
     style="fill:#e8ddcd" />
  <path
     d="M 17.639091,35.008182 C 16.006364,26.415455 8.8872727,19.766364 0.05818182,18.866364 0.03636364,19.244545 0,19.618182 0,20.000909 0,27.485455 4.1181818,34 10.206364,37.428182 c 2.331818,1.312727 4.947272,2.182727 7.74,2.467273 0.02182,-0.376364 0.05727,-0.75 0.05727,-1.132728 0,-1.285454 -0.133636,-2.536363 -0.364545,-3.754545"
     id="path5"
     inkscape:connector-curvature="0"
     style="fill:#e8ddcd" />
  <path
     d="m 22.360909,35.008182 c -0.776364,-0.09091 -1.561818,-0.150909 -2.361818,-0.150909 -0.8,0 -1.585455,0.06 -2.36,0.150909 0.231818,1.218182 0.364545,2.469091 0.364545,3.754545 0,0.382728 -0.03545,0.756364 -0.05727,1.132728 C 18.62,39.963636 19.305455,40 19.999091,40 c 0.693636,0 1.379091,-0.03636 2.055454,-0.104545 -0.02182,-0.376364 -0.05727,-0.75 -0.05727,-1.132728 -9.09e-4,-1.285454 0.132727,-2.536363 0.363636,-3.754545"
     id="path7"
     inkscape:connector-curvature="0"
     style="fill:#333333" />
  <path
     d="M 40,0 30.426364,2.9427273 C 27.391818,1.0790909 23.824545,0 19.999091,0 16.174545,0 12.607273,1.0790909 9.5736364,2.9418182 L 0,0 2.9472727,9.5890909 C 1.2818182,12.32 0.24727273,15.479091 0.05727273,18.866364 c 8.82909087,0.9 15.94818227,7.549091 17.58090927,16.141818 0.775454,-0.09091 1.56,-0.150909 2.36,-0.150909 0.8,0 1.585454,0.06 2.361818,0.150909 C 23.993636,26.415455 31.112727,19.766364 39.941818,18.866364 39.750909,15.48 38.717273,12.32 37.051818,9.5890909 L 40,0 Z"
     id="path9"
     inkscape:connector-curvature="0"
     style="fill:#e30613" />
</svg>
