<?xml version="1.0" encoding="UTF-8" standalone="no"?>
<svg
   xmlns:dc="http://purl.org/dc/elements/1.1/"
   xmlns:cc="http://creativecommons.org/ns#"
   xmlns:rdf="http://www.w3.org/1999/02/22-rdf-syntax-ns#"
   xmlns:svg="http://www.w3.org/2000/svg"
   xmlns="http://www.w3.org/2000/svg"
   xmlns:sodipodi="http://sodipodi.sourceforge.net/DTD/sodipodi-0.dtd"
   xmlns:inkscape="http://www.inkscape.org/namespaces/inkscape"
   width="40"
   height="40"
   viewBox="0 0 40 40"
   id="svg4310"
   version="1.1"
   inkscape:version="0.91 r13725"
   sodipodi:docname="file-txt.svg">
  <metadata
     id="metadata4318">
    <rdf:RDF>
      <cc:Work
         rdf:about="">
        <dc:format>image/svg+xml</dc:format>
        <dc:type
           rdf:resource="http://purl.org/dc/dcmitype/StillImage" />
        <dc:title></dc:title>
      </cc:Work>
    </rdf:RDF>
  </metadata>
  <path
     d="m 35.8,8.5 c 0.4,0.4 0.733333,0.9666667 1,1.7 0.266667,0.733333 0.433333,1.366667 0.5,1.9 l 0,25.8 c 0,0.533333 -0.2,1.033333 -0.6,1.5 -0.4,0.466667 -0.933333,0.666667 -1.6,0.6 l -30,0 C 4.5,40 4,39.8 3.6,39.4 3.2,39 3,38.5 3,37.9 L 3,2.1 C 3,1.5666667 3.2,1.0666667 3.6,0.6 4,0.13333333 4.5,-0.06666667 5.1,0 l 20,0 c 0.6,0 1.266667,0.13333333 2,0.4 0.733333,0.26666667 1.3,0.6333333 1.7,1.1 z M 25.9,3 l 0,8.4 8.4,0 C 34.1,11 33.933333,10.7 33.8,10.5 l -7,-7 C 26.6,3.3666667 26.3,3.2 25.9,3 Z m 8.5,34.1 0,-22.8 -9.3,0 C 24.5,14.3 24,14.1 23.6,13.7 23.2,13.3 23,12.766667 23,12.1 l 0,-9.2 -17.1,0 0,34.2 z"
     id="path4312"
     style="fill:#444444"
 />
  <g
     style="font-style:normal;font-weight:normal;font-size:58.9221611px;line-height:125%;font-family:sans-serif;text-align:end;letter-spacing:0px;word-spacing:0px;text-anchor:end;fill:#444444;fill-opacity:1;stroke:none;stroke-width:1px;stroke-linecap:butt;stroke-linejoin:miter;stroke-opacity:1"
     id="text4320">
    <path
       d="m 19.09138,27.638036 0,1.715447 1.990565,0 0,1.380988 -1.990565,0 0,2.56238 q 0,0.42077 0.167229,0.571815 0.167229,0.145652 0.663522,0.145652 l 0.992585,0 0,1.380988 -1.656107,0 q -1.14363,0 -1.62374,-0.474715 -0.474714,-0.480109 -0.474714,-1.62374 l 0,-2.56238 -0.960219,0 0,-1.380988 0.960219,0 0,-1.715447 1.931225,0 z"
       style="fill:#444444;fill-opacity:1"
       id="path10013" />
    <path
       d="m 23.795371,32.304266 -2.179372,-2.950783 2.04451,0 1.235337,1.790969 1.251521,-1.790969 2.044509,0 -2.179371,2.939994 2.287261,3.101829 -2.04451,0 -1.35941,-1.909648 -1.343227,1.909648 -2.044509,0 2.287261,-3.09104 z"
       style="fill:#444444;fill-opacity:1"
       id="path10015" />
    <path
       d="m 31.498696,27.638036 0,1.715447 1.990564,0 0,1.380988 -1.990564,0 0,2.56238 q 0,0.42077 0.167229,0.571815 0.167229,0.145652 0.663521,0.145652 l 0.992585,0 0,1.380988 -1.656106,0 q -1.143631,0 -1.62374,-0.474715 -0.474715,-0.480109 -0.474715,-1.62374 l 0,-2.56238 -0.960218,0 0,-1.380988 0.960218,0 0,-1.715447 1.931226,0 z"
       style="fill:#444444;fill-opacity:1"
       id="path10017" />
  </g>
</svg>
