<?xml version="1.0" encoding="UTF-8" standalone="no"?>
<!-- Created with Inkscape (http://www.inkscape.org/) -->

<svg
   xmlns:dc="http://purl.org/dc/elements/1.1/"
   xmlns:cc="http://creativecommons.org/ns#"
   xmlns:rdf="http://www.w3.org/1999/02/22-rdf-syntax-ns#"
   xmlns:svg="http://www.w3.org/2000/svg"
   xmlns="http://www.w3.org/2000/svg"
   xmlns:sodipodi="http://sodipodi.sourceforge.net/DTD/sodipodi-0.dtd"
   xmlns:inkscape="http://www.inkscape.org/namespaces/inkscape"
   width="199.58554"
   height="40.000004"
   viewBox="0 0 199.58553 40.000003"
   id="svg3669"
   version="1.1"
   inkscape:version="0.91 r13725"
   sodipodi:docname="heureka.svg">
  <defs
     id="defs3671" />
  <sodipodi:namedview
     id="base"
     pagecolor="#ffffff"
     bordercolor="#666666"
     borderopacity="1.0"
     inkscape:pageopacity="0.0"
     inkscape:pageshadow="2"
     inkscape:zoom="1.4"
     inkscape:cx="98.260198"
     inkscape:cy="-21.04465"
     inkscape:document-units="px"
     inkscape:current-layer="layer1"
     showgrid="false"
     fit-margin-top="0"
     fit-margin-left="0"
     fit-margin-right="0"
     fit-margin-bottom="0"
     units="px"
     inkscape:window-width="1280"
     inkscape:window-height="987"
     inkscape:window-x="640"
     inkscape:window-y="26"
     inkscape:window-maximized="1" />
  <metadata
     id="metadata3674">
    <rdf:RDF>
      <cc:Work
         rdf:about="">
        <dc:format>image/svg+xml</dc:format>
        <dc:type
           rdf:resource="http://purl.org/dc/dcmitype/StillImage" />
        <dc:title></dc:title>
      </cc:Work>
    </rdf:RDF>
  </metadata>
  <g
     inkscape:label="Layer 1"
     inkscape:groupmode="layer"
     id="layer1"
     transform="translate(-236.96393,-421.89626)">
    <g
       id="g3521"
       transform="matrix(0.73920415,0,0,-0.73920415,307.36275,456.29057)">
      <path
         d="m 0,0 c 0,-2.085 -1.695,-3.781 -3.78,-3.781 -2.088,0 -3.781,1.696 -3.781,3.781 l 0,15.711 -18.646,0 0,-15.711 c 0,-2.085 -1.695,-3.781 -3.781,-3.781 -2.087,0 -3.78,1.696 -3.78,3.781 l 0,37.353 c 0,2.087 1.693,3.782 3.78,3.782 2.086,0 3.781,-1.695 3.781,-3.782 l 0,-14.732 18.646,0 0,14.732 c 0,2.087 1.693,3.782 3.781,3.782 2.085,0 3.78,-1.695 3.78,-3.782 L 0,0 Z"
         style="fill:#00abd7;fill-opacity:1;fill-rule:nonzero;stroke:none"
         id="path3523"
         inkscape:connector-curvature="0" />
    </g>
    <g
       id="g3525"
       transform="matrix(0.73920415,0,0,-0.73920415,317.04603,445.25551)">
      <path
         d="m 0,0 12.909,0 c 0,3.197 -1.826,6.324 -6.064,6.324 C 3.065,6.324 0.327,4.173 0,0 m 6.845,12.323 c 11.017,0 13.039,-8.476 13.039,-12.976 0,-2.409 0,-5.214 -3.977,-5.214 l -16.102,0 c 0,-4.693 3.326,-6.844 7.627,-6.844 2.868,0 4.89,0.977 6.454,2.021 0.718,0.458 1.239,0.718 2.086,0.718 1.695,0 3.064,-1.371 3.064,-3.066 0,-1.041 -0.521,-1.89 -1.108,-2.411 -1.107,-1.044 -4.564,-3.587 -10.496,-3.587 -9.06,0 -14.667,4.891 -14.667,15.778 0,9.973 5.216,15.581 14.08,15.581"
         style="fill:#00abd7;fill-opacity:1;fill-rule:nonzero;stroke:none"
         id="path3527"
         inkscape:connector-curvature="0" />
    </g>
    <g
       id="g3529"
       transform="matrix(0.73920415,0,0,-0.73920415,340.32121,439.03799)">
      <path
         d="m 0,0 0,-15.189 c 0,-3 1.043,-5.867 5.869,-5.867 4.759,0 5.8,2.867 5.8,5.867 l 0,15.189 c 0,1.956 1.562,3.52 3.519,3.52 1.957,0 3.521,-1.564 3.521,-3.52 l 0,-15.189 c 0,-6.389 -2.41,-12.258 -12.84,-12.258 -10.499,0 -12.91,5.869 -12.91,12.258 l 0,15.189 c 0,1.956 1.564,3.52 3.52,3.52 C -1.563,3.52 0,1.956 0,0"
         style="fill:#00abd7;fill-opacity:1;fill-rule:nonzero;stroke:none"
         id="path3531"
         inkscape:connector-curvature="0" />
    </g>
    <g
       id="g3533"
       transform="matrix(0.73920415,0,0,-0.73920415,363.9325,439.27912)">
      <path
         d="m 0,0 c 1.24,2.541 4.301,4.171 7.041,4.171 1.824,0 3.323,-1.498 3.323,-3.325 0,-1.825 -1.499,-3.324 -3.323,-3.324 C 2.544,-2.478 0,-5.346 0,-9.713 l 0,-13.56 c 0,-1.956 -1.563,-3.521 -3.522,-3.521 -1.955,0 -3.519,1.565 -3.519,3.521 l 0,23.599 c 0,1.956 1.564,3.52 3.519,3.52 C -1.563,3.846 0,2.282 0,0.326 L 0,0 Z"
         style="fill:#00abd7;fill-opacity:1;fill-rule:nonzero;stroke:none"
         id="path3535"
         inkscape:connector-curvature="0" />
    </g>
    <g
       id="g3537"
       transform="matrix(0.73920415,0,0,-0.73920415,378.24223,445.25551)">
      <path
         d="m 0,0 12.908,0 c 0,3.197 -1.825,6.324 -6.06,6.324 C 3.064,6.324 0.326,4.173 0,0 m 6.848,12.323 c 11.015,0 13.037,-8.476 13.037,-12.976 0,-2.409 0,-5.214 -3.977,-5.214 l -16.101,0 c 0,-4.693 3.323,-6.844 7.627,-6.844 2.868,0 4.89,0.977 6.453,2.021 0.718,0.458 1.239,0.718 2.087,0.718 1.695,0 3.063,-1.371 3.063,-3.066 0,-1.041 -0.523,-1.89 -1.108,-2.411 -1.108,-1.044 -4.565,-3.587 -10.495,-3.587 -9.063,0 -14.668,4.891 -14.668,15.778 0,9.973 5.215,15.581 14.082,15.581"
         style="fill:#00abd7;fill-opacity:1;fill-rule:nonzero;stroke:none"
         id="path3539"
         inkscape:connector-curvature="0" />
    </g>
    <g
       id="g3541"
       transform="matrix(0.73920415,0,0,-0.73920415,410.72323,458.07287)">
      <path
         d="m 0,0 -9.716,13.036 -2.085,-1.628 0,-9.387 c 0,-1.955 -1.565,-3.391 -3.52,-3.391 -2.02,0 -3.52,1.436 -3.52,3.391 l 0,40.156 c 0,1.957 1.5,3.391 3.52,3.391 1.955,0 3.52,-1.434 3.52,-3.391 l 0,-23.011 L 0,28.421 c 0.845,0.655 1.498,0.849 2.28,0.849 1.889,0 3.389,-1.499 3.389,-3.389 0,-0.977 -0.456,-2.022 -1.304,-2.674 L -4.174,16.687 5.409,4.107 C 5.93,3.389 6.126,2.672 6.126,2.021 6.126,0.129 4.627,-1.37 2.735,-1.37 1.498,-1.37 0.585,-0.783 0,0"
         style="fill:#00abd7;fill-opacity:1;fill-rule:nonzero;stroke:none"
         id="path3543"
         inkscape:connector-curvature="0" />
    </g>
    <g
       id="g3545"
       transform="matrix(0.73920415,0,0,-0.73920415,431.39278,450.65163)">
      <path
         d="m 0,0 0,1.826 -7.627,0 c -2.867,0 -4.432,-1.37 -4.432,-3.718 0,-2.477 1.759,-3.975 5.411,-3.975 C -3.193,-5.867 0,-3.65 0,0 m -12.449,10.885 c -0.654,-0.455 -1.174,-0.652 -1.956,-0.652 -1.697,0 -3.065,1.371 -3.065,3.062 0,0.72 0.259,1.502 0.846,2.154 1.826,2.02 5.086,4.172 10.691,4.172 8.084,0 12.909,-3.976 12.909,-10.886 l 0,-16.69 c 0,-1.889 -1.565,-3.454 -3.455,-3.454 -1.89,0 -3.454,1.565 -3.454,3.454 -1.762,-2.803 -4.631,-3.781 -8.542,-3.781 -6.387,0 -10.624,3.978 -10.624,9.844 0,6.063 4.887,9.192 10.56,9.192 L 0,7.3 0,8.475 c 0,2.933 -2.151,4.888 -5.933,4.888 -2.868,0 -4.887,-1.302 -6.516,-2.478"
         style="fill:#00abd7;fill-opacity:1;fill-rule:nonzero;stroke:none"
         id="path3547"
         inkscape:connector-curvature="0" />
    </g>
    <path
       d="m 241.78293,439.00554 c 0,-6.77776 5.51373,-12.29148 12.29149,-12.29148 2.47707,0 4.78265,0.7392 6.71419,2.00472 l -7.06827,11.34974 -2.9132,-3.84756 c -0.43687,-0.57584 -1.1029,-0.907 -1.82584,-0.907 -0.50192,0 -0.9787,0.16114 -1.37935,0.46496 -1.0068,0.76138 -1.20564,2.19839 -0.44353,3.20593 l 4.92089,6.49908 c 0.43169,0.56697 1.1125,0.90626 1.82435,0.90626 0.0355,0 0.0702,0 0.10497,-0.003 0.75399,-0.0347 1.44071,-0.43613 1.83766,-1.07629 l 8.30422,-13.33228 c 1.39488,1.99289 2.2154,4.416 2.2154,7.02687 0,6.77851 -5.51373,12.29297 -12.29149,12.29297 -6.77776,0 -12.29149,-5.51446 -12.29149,-12.29297 m 31.44131,17.84883 -6.42516,-6.42591 0.008,-0.007 c 2.71953,-3.03 4.37757,-7.03279 4.37757,-11.41627 0,-9.43372 -7.67516,-17.10888 -17.11036,-17.10888 -9.43446,0 -17.11036,7.67516 -17.11036,17.10888 0,9.43594 7.6759,17.11036 17.11036,17.11036 2.90581,0 5.63643,-0.73846 8.03441,-2.02172 l 6.93669,6.93817 c 1.15316,1.15242 3.02556,1.15242 4.17946,0 1.15168,-1.15316 1.15168,-3.02556 -5.9e-4,-4.17798"
       style="color:#000000;clip-rule:nonzero;display:inline;overflow:visible;visibility:visible;opacity:1;isolation:auto;mix-blend-mode:normal;color-interpolation:sRGB;color-interpolation-filters:linearRGB;solid-color:#000000;solid-opacity:1;fill:#ff7b00;fill-opacity:1;fill-rule:nonzero;stroke:none;stroke-width:1;stroke-linecap:butt;stroke-linejoin:miter;stroke-miterlimit:4;stroke-dasharray:none;stroke-dashoffset:0;stroke-opacity:1;color-rendering:auto;image-rendering:auto;shape-rendering:auto;text-rendering:auto;enable-background:accumulate"
       id="path3551"
       inkscape:connector-curvature="0" />
  </g>
</svg>
