<?xml version="1.0" encoding="UTF-8" standalone="no"?>
<!-- Created with Inkscape (http://www.inkscape.org/) -->

<svg
   xmlns:dc="http://purl.org/dc/elements/1.1/"
   xmlns:cc="http://creativecommons.org/ns#"
   xmlns:rdf="http://www.w3.org/1999/02/22-rdf-syntax-ns#"
   xmlns:svg="http://www.w3.org/2000/svg"
   xmlns="http://www.w3.org/2000/svg"
   xmlns:sodipodi="http://sodipodi.sourceforge.net/DTD/sodipodi-0.dtd"
   xmlns:inkscape="http://www.inkscape.org/namespaces/inkscape"
   width="40"
   height="40"
   viewBox="0 0 40 40"
   version="1.1"
   id="svg4676"
   sodipodi:docname="hint-info.svg"
   inkscape:version="0.92.1 r15371">
  <metadata
     id="metadata28">
    <rdf:RDF>
      <cc:Work
         rdf:about="">
        <dc:format>image/svg+xml</dc:format>
        <dc:type
           rdf:resource="http://purl.org/dc/dcmitype/StillImage" />
        <dc:title></dc:title>
      </cc:Work>
    </rdf:RDF>
  </metadata>
  <defs
     id="defs26" />
  <sodipodi:namedview
     pagecolor="#ffffff"
     bordercolor="#666666"
     borderopacity="1"
     objecttolerance="10"
     gridtolerance="10"
     guidetolerance="10"
     inkscape:pageopacity="0"
     inkscape:pageshadow="2"
     inkscape:window-width="1740"
     inkscape:window-height="1048"
     id="namedview24"
     showgrid="false"
     inkscape:zoom="5.9"
     inkscape:cx="19.830508"
     inkscape:cy="20"
     inkscape:window-x="180"
     inkscape:window-y="0"
     inkscape:window-maximized="1"
     inkscape:current-layer="svg4676" />
  <g
     id="g170"
     transform="matrix(0.80326386,0,0,0.80327357,5.2542373,-28.646477)">
    <g
       id="g853"
       transform="translate(-6.54111,35.659169)">
      <path
         id="path21"
         d="M 49.796837,24.901721 C 49.796837,11.149523 38.649411,0.003 24.89882,0.003 11.147527,0.003 0,11.149523 0,24.901721 c 0,13.750088 11.147527,24.897514 24.89882,24.897514 13.750591,0 24.898017,-11.147426 24.898017,-24.897514 z"
         style="fill-opacity:1;stroke-width:0.10036489"
         inkscape:connector-curvature="0" />
      <g
         id="g27"
         transform="matrix(0.10036489,0,0,0.10036489,0,0.00269892)">
        <path
           id="path23"
           d="m 315.249,359.555 c -1.387,-2.032 -4.048,-2.755 -6.27,-1.702 -24.582,11.637 -52.482,23.94 -57.958,25.015 -0.138,-0.123 -0.357,-0.348 -0.644,-0.737 -0.742,-1.005 -1.103,-2.318 -1.103,-4.015 0,-13.905 10.495,-56.205 31.192,-125.719 17.451,-58.406 19.469,-70.499 19.469,-74.514 0,-6.198 -2.373,-11.435 -6.865,-15.146 -4.267,-3.519 -10.229,-5.302 -17.719,-5.302 -12.459,0 -26.899,4.73 -44.146,14.461 -16.713,9.433 -35.352,25.41 -55.396,47.487 -1.569,1.729 -1.733,4.314 -0.395,6.228 1.34,1.915 3.825,2.644 5.986,1.764 7.037,-2.872 42.402,-17.359 47.557,-20.597 4.221,-2.646 7.875,-3.989 10.861,-3.989 0.107,0 0.199,0.004 0.276,0.01 0.036,0.198 0.07,0.5 0.07,0.933 0,3.047 -0.627,6.654 -1.856,10.703 -30.136,97.641 -44.785,157.498 -44.785,182.994 0,8.998 2.501,16.242 7.432,21.528 5.025,5.393 11.803,8.127 20.146,8.127 8.891,0 19.712,-3.714 33.08,-11.354 12.936,-7.392 32.68,-23.653 60.363,-49.717 1.793,-1.687 2.092,-4.426 0.705,-6.458 z"

           inkscape:connector-curvature="0" />
        <path
           id="path25"
           d="m 314.282,76.672 c -4.925,-5.041 -11.227,-7.597 -18.729,-7.597 -9.34,0 -17.475,3.691 -24.176,10.971 -6.594,7.16 -9.938,15.946 -9.938,26.113 0,8.033 2.463,14.69 7.32,19.785 4.922,5.172 11.139,7.794 18.476,7.794 8.958,0 17.049,-3.898 24.047,-11.586 6.876,-7.553 10.363,-16.433 10.363,-26.393 0.001,-7.654 -2.476,-14.075 -7.363,-19.087 z"

           inkscape:connector-curvature="0" />
      </g>
    </g>
  </g>
</svg>
