<svg xmlns="http://www.w3.org/2000/svg" width="40" height="40" viewBox="0 0 40 40"><path d="M34.4 2.9q0 5.8-2.3 10.3t-6 6.8q3.6 2.4 6 6.8t2.3 10.3h2.2q.3 0 .5.2t.2.6v1.4q0 .3-.2.5t-.5.2H3.7q-.3 0-.5-.2t-.2-.5v-1.4q0-.4.2-.6t.5-.2h2.2q0-5.8 2.3-10.3t6-6.8q-3.6-2.4-6-6.8T5.9 2.9H3.7q-.3 0-.5-.2T3 2.1V.7q0-.3.2-.5t.5-.2h32.9q.3 0 .5.2t.2.5v1.4q0 .4-.2.6t-.5.2h-2.2zM22.5 18.7q1.7-.7 3.3-2.1t2.9-3.4 2.1-4.7.8-5.6H8.7q0 2.9.8 5.6t2.1 4.7 2.9 3.4 3.3 2.1q.4.1.7.5t.2.8-.2.8-.7.5q-3.1 1.2-5.5 4.4H28q-2.4-3.2-5.5-4.4-.4-.1-.7-.5t-.2-.8.2-.8.7-.5z"/></svg>