<?xml version="1.0" encoding="UTF-8" standalone="no"?>
<svg
   xmlns:dc="http://purl.org/dc/elements/1.1/"
   xmlns:cc="http://creativecommons.org/ns#"
   xmlns:rdf="http://www.w3.org/1999/02/22-rdf-syntax-ns#"
   xmlns:svg="http://www.w3.org/2000/svg"
   xmlns="http://www.w3.org/2000/svg"
   xmlns:sodipodi="http://sodipodi.sourceforge.net/DTD/sodipodi-0.dtd"
   xmlns:inkscape="http://www.inkscape.org/namespaces/inkscape"
   width="40"
   height="40"
   viewBox="0 0 40 40"
   id="svg4310"
   version="1.1"
   inkscape:version="0.91 r13725"
   sodipodi:docname="pno.svg">
  <metadata
     id="metadata4318">
    <rdf:RDF>
      <cc:Work
         rdf:about="">
        <dc:format>image/svg+xml</dc:format>
        <dc:type
           rdf:resource="http://purl.org/dc/dcmitype/StillImage" />
        <dc:title></dc:title>
      </cc:Work>
    </rdf:RDF>
  </metadata>
  <defs
     id="defs4316" />
  <sodipodi:namedview
     pagecolor="#ffffff"
     bordercolor="#666666"
     borderopacity="1"
     objecttolerance="10"
     gridtolerance="10"
     guidetolerance="10"
     inkscape:pageopacity="0"
     inkscape:pageshadow="2"
     inkscape:window-width="1680"
     inkscape:window-height="1013"
     id="namedview4314"
     showgrid="false"
     inkscape:zoom="7.1417785"
     inkscape:cx="-6.1400288"
     inkscape:cy="6.3707593"
     inkscape:window-x="1920"
     inkscape:window-y="1024"
     inkscape:window-maximized="1"
     inkscape:current-layer="svg4310" />
  <g
     style="fill:#3f3f3f;fill-opacity:1;stroke:none;stroke-width:1px;stroke-linecap:butt;stroke-linejoin:miter;stroke-opacity:1"
     id="text4471">
    <path
       d="m 2.9125977,14.525146 4.6801757,0 q 2.0874024,0 3.2006836,0.930176 1.120606,0.922852 1.120606,2.636719 0,1.721191 -1.120606,2.651367 -1.1132812,0.922852 -3.2006836,0.922852 l -1.8603515,0 0,3.793945 -2.8198242,0 0,-10.935059 z m 2.8198242,2.043458 0,3.054199 1.5600586,0 q 0.8203125,0 1.2670898,-0.395508 0.4467774,-0.402832 0.4467774,-1.135254 0,-0.732422 -0.4467774,-1.12793 Q 8.112793,16.568604 7.2924805,16.568604 l -1.5600586,0 z"
       style="fill:#3f3f3f;fill-opacity:1"
       id="path4135" />
    <path
       d="m 13.898926,14.525146 3.149414,0 3.977051,7.5 0,-7.5 2.673339,0 0,10.935059 -3.149414,0 -3.97705,-7.5 0,7.5 -2.67334,0 0,-10.935059 z"
       style="fill:#3f3f3f;fill-opacity:1"
       id="path4137" />
    <path
       d="m 31.462402,16.37085 q -1.289062,0 -1.999511,0.952148 -0.71045,0.952148 -0.71045,2.680664 0,1.721192 0.71045,2.67334 0.710449,0.952148 1.999511,0.952148 1.296387,0 2.006836,-0.952148 0.710449,-0.952148 0.710449,-2.67334 0,-1.728516 -0.710449,-2.680664 -0.710449,-0.952148 -2.006836,-0.952148 z m 0,-2.043457 q 2.636719,0 4.13086,1.508789 1.49414,1.508789 1.49414,4.16748 0,2.651367 -1.49414,4.160156 -1.494141,1.508789 -4.13086,1.508789 -2.629394,0 -4.130859,-1.508789 -1.494141,-1.508789 -1.494141,-4.160156 0,-2.658691 1.494141,-4.16748 1.501465,-1.508789 4.130859,-1.508789 z"
       style="fill:#3f3f3f;fill-opacity:1"
       id="path4139" />
  </g>
</svg>
