<?xml version="1.0" encoding="UTF-8" standalone="no"?>
<svg
   xmlns:dc="http://purl.org/dc/elements/1.1/"
   xmlns:cc="http://creativecommons.org/ns#"
   xmlns:rdf="http://www.w3.org/1999/02/22-rdf-syntax-ns#"
   xmlns:svg="http://www.w3.org/2000/svg"
   xmlns="http://www.w3.org/2000/svg"
   xmlns:sodipodi="http://sodipodi.sourceforge.net/DTD/sodipodi-0.dtd"
   xmlns:inkscape="http://www.inkscape.org/namespaces/inkscape"
   width="40"
   height="40"
   viewBox="0 0 40 40"
   id="svg6713"
   version="1.1">

  <path
     fill="#444"
     d="m27.2 18.6q0-4.2-2.9-7.1t-7.1-2.9-7 2.9-3 7.1 2.9 7 7.1 3 7.1-3 2.9-7z m11.4 18.5q0 1.2-0.8 2.1t-2 0.8q-1.2 0-2-0.8l-7.7-7.7q-4 2.8-8.9 2.8-3.2 0-6.1-1.3t-5-3.3-3.4-5-1.2-6.1 1.2-6.1 3.4-5.1 5-3.3 6.1-1.2 6.1 1.2 5 3.3 3.4 5.1 1.2 6.1q0 4.9-2.7 8.9l7.6 7.6q0.8 0.9 0.8 2z"
     id="path6715" />
  <g
     style="fill:#000000;fill-opacity:1;stroke:none;stroke-width:1px;stroke-linecap:butt;stroke-linejoin:miter;stroke-opacity:1"
     id="text7263">
    <path
       d="m 12.244975,13.182383 2.819824,0 0,4.16748 4.160157,0 0,-4.16748 2.819824,0 0,10.935058 -2.819824,0 0,-4.63623 -4.160157,0 0,4.63623 -2.819824,0 0,-10.935058 z"
       style="fill:#3f3f3f;fill-opacity:1"
       id="path7268" />
  </g>
</svg>
