<?xml version="1.0" encoding="UTF-8" standalone="no"?>
<svg
   xmlns:dc="http://purl.org/dc/elements/1.1/"
   xmlns:cc="http://creativecommons.org/ns#"
   xmlns:rdf="http://www.w3.org/1999/02/22-rdf-syntax-ns#"
   xmlns:svg="http://www.w3.org/2000/svg"
   xmlns="http://www.w3.org/2000/svg"
   width="42.667"
   height="42.667"
   viewBox="0 0 39.999997 40"
   version="1.1"
   id="svg4563">
  <defs
     id="defs4567" />
  <g
     aria-label="2"
     id="text5116-35">
    <path
       d="m 18.96659,24.431821 h 6.415965 v 2.76365 h -10.59562 v -2.76365 l 5.322224,-4.697229 q 0.712885,-0.644527 1.054679,-1.259756 0.341794,-0.61523 0.341794,-1.279287 0,-1.025383 -0.693354,-1.650378 -0.683588,-0.624995 -1.826157,-0.624995 -0.8789,0 -1.923813,0.380857 -1.044914,0.37109 -2.236311,1.113272 v -3.2031 q 1.269521,-0.419918 2.509746,-0.63476 1.240225,-0.224608 2.431622,-0.224608 2.617167,0 4.062468,1.152335 1.455067,1.152334 1.455067,3.212865 0,1.191397 -0.61523,2.226545 -0.615229,1.025383 -2.58787,2.753885 z"
       id="path6347" />
  </g>
  <path
     d="M34.539 18.667A14.576 14.576 0 0 0 21.333 5.47V0h-2.666v5.47A14.576 14.576 0 0 0 5.46 18.667H0v2.666h5.46a14.583 14.583 0 0 0 13.207 13.198V40h2.666v-5.469A14.583 14.583 0 0 0 34.54 21.333H40v-2.666h-5.461zM20 32c-6.625 0-12-5.375-12-12 0-6.626 5.375-12 12-12 6.628 0 12 5.374 12 12 0 6.625-5.372 12-12 12z"
     id="path4559" />
</svg>
