<?xml version="1.0" encoding="UTF-8" standalone="no"?>
<svg
   xmlns:dc="http://purl.org/dc/elements/1.1/"
   xmlns:cc="http://creativecommons.org/ns#"
   xmlns:rdf="http://www.w3.org/1999/02/22-rdf-syntax-ns#"
   xmlns:svg="http://www.w3.org/2000/svg"
   xmlns="http://www.w3.org/2000/svg"
   width="42.667"
   height="42.667"
   viewBox="0 0 39.999997 40"
   version="1.1"
   id="svg4563">
  <defs
     id="defs4567" />
  <path
     d="M34.539 18.667A14.576 14.576 0 0 0 21.333 5.47V0h-2.666v5.47A14.576 14.576 0 0 0 5.46 18.667H0v2.666h5.46a14.583 14.583 0 0 0 13.207 13.198V40h2.666v-5.469A14.583 14.583 0 0 0 34.54 21.333H40v-2.666h-5.461zM20 32c-6.625 0-12-5.375-12-12 0-6.626 5.375-12 12-12 6.628 0 12 5.374 12 12 0 6.625-5.372 12-12 12z"
     id="path4559" />
  <g
     aria-label="1"
     id="text5116-7">
    <path
       d="m 22.660852,12.804529 v 14.560433 h -4.023406 v -9.540941 q -0.976555,0.742181 -1.894517,1.201162 -0.908196,0.458981 -2.285138,0.878899 v -3.261693 q 2.031234,-0.654292 3.154272,-1.572253 1.123038,-0.917962 1.757799,-2.265607 z"
       id="path6906" />
  </g>
</svg>
