<svg xmlns="http://www.w3.org/2000/svg" width="211.004" height="40" viewBox="0 0 211.004 40"><g fill="none" fill-rule="evenodd"><path d="M47.805 13.536c-6.822 3.419-24.601 8.915-26.984 9.738-1.556.538-6.691 2.39-6.966 4.344-.38 2.716 5.666 3.401 9.167 3.824 2.36.287 8.12.925 13.354.643 5.092-.276 12.218-1.37 12.371-.229.18 1.327-8.693 4.533-12.283 5.382-3.059.724-12.53 2.205-18.84 2.053C12.376 39.164 3.87 38.473.81 33.34c-1.068-1.79-1.068-5.375-.063-6.93 1.115-1.728 2.33-3.448 5.027-4.636 5.143-2.268 28.508-10.985 29.215-11.137 1.563-.338 3.62-1.352-.494-1.688-3.256-.268-6.52-.44-9.785-.44-1.564.003-3.123.06-4.684.138-1.253.064-2.697.194-3.673-.793-.867-.875-1.565-2.585-1.762-3.806-.183-1.145.227-2.11 1.136-2.788 1.94-1.448 4.966-1.28 7.238-1.225 1.205.03 8.119.577 10.374.763 5.939.494 14.33 1.599 16.89 7.705 1.404 3.354-2.423 5.033-2.423 5.033" fill="#dc1f27"/><path d="M69.119 39.718c-3.193.486-9.174-.335-11.34-1.148-2.258-.849-6.332-2.64-6.653-4.122-.292-1.35 1.347-2.368 1.71-7.842.13-1.973.038-3.626 0-5.603-.04-2.013.026-8.364-.02-9.457 0 0-.017-9.221.9-10.268 1.123-1.28 4.31 3.269 5.117 4.224 1.194 1.413-.829 15.194-.459 15.63.388.454 2.596-4.383 9.622-3.557 5.62.664 11.367 4.511 11.367 12.826 0 2.66-.899 4.34-2.013 5.593-1.783 2.018-3.945 3.066-8.231 3.724zM58.882 27.052c-.365.533-.893 3.44-.402 4.494.242.518 4.217 1.04 5.322 1.101 2.362.13 4.413-.104 6.036-.78 1.43-.596 2.222-1.91 1.878-4.631-.312-2.476-3.085-4.632-6.349-4.31-3.265.32-5.01 1.973-6.485 4.126zm39.31-10.78c6.808.258 11.883 8.031 9.657 14.289-.856 2.405-2.276 5.022-4.652 6.6-3.501 2.32-8.725 3.434-12.822 2.52a14.937 14.937 0 0 1-3.822-1.431c-1.969-1.075-4.142-2.575-4.882-4.847-.384-1.168-.576-2.916-.298-4.128.29-1.248.825-2.802 1.562-3.85 1.445-2.056 3.577-4.068 5.67-5.423 2.634-1.71 6.373-3.853 9.587-3.73M89.991 32.24c1.956.716 3.988.765 6.09.513 2.321-.276 4.536-1.65 5.581-3.841.894-1.872.712-4.175-.895-5.574-1.662-1.453-4.092-1.445-6.055-.732-1.806.658-3.715 1.34-5.118 2.735-.995.987-2.338 2.578-2.086 4.117.211 1.28 1.332 2.361 2.483 2.784m25.07-18.012c2.026 0 4.032.141 6.04.427 2.284.322 5.668.608 6.489 3.073 1.463 4.4-2.934 7.537-4.825 9.719-.63.73-3.163 3.501-3.588 4.36.881.495 2.864.292 3.88.271 10.574-.23 13.217-2.968 14.032-3.102 1.586-.259-.638 4.05-.917 4.53-3.03 5.172-5.963 5.154-11.354 5.85-1.746.227-3.54.356-5.3.29-2.292-.082-5.076-.329-6.992-1.75-2.474-1.835-1.815-4.422-.528-6.673.93-1.624 8.386-8.282 8.307-9.734-2.018-.608-5.477-.273-6.99.31-1.058.407-2.692 1.1-3.323-.331-.446-1.015.053-2.395.317-3.398.672-2.576 2.11-3.842 4.751-3.842" fill="#000"/><path d="M112.414 2.399s8.423.942 20.061 4.953c3.468 1.195 7.014 2.118 9.204 3.778 2.732 2.066 4.49 3.417 4.998 4.72.67 1.718.95 3.824.476 8.036-.346 3.064-1.923 12.291-2.577 13.555-.978 1.889-2.913.701-3.903-.58-2.649-3.431-1.304-8.08-.34-11.902.472-1.873 2.344-6.193 1.873-8.165-.472-1.986-1.822-1.732-4.515-2.654-1.37-.468-6.922-1.79-13.918-3.11-6.75-1.272-6.707-1.108-9.375-1.607-2.321-.435-4.98-.617-6.624-.966-2.203-.465-3.074-1.11-3.532-1.942-.805-1.452-.992-3.924-.238-4.504.758-.582 8.41.388 8.41.388m32.451 6.405c.018-1.767 2.984-2.91 5.083-3.993 2.137-1.105 4.911-2.597 7.218-3.292 1.746-.527 3.057.332 3.678 2.09.356 1.012.49 2.238.172 3.278-.469 1.53-2.021 1.95-3.396 2.21-8.028 1.524-12.728 1.172-12.755-.293m52.489 24.813c-2.575.188-5.003.638-7.617.382-.846-.084-2.298-.155-3.013-.634-2.087-1.412 5.23-3.925 6.132-4.254 2.536-.93 7.649-2.443 7.649-2.443s4.802-1.223 4.944-3.877c.177-3.22-3.048-4.677-5.52-5.48a25.283 25.283 0 0 0-3.085-.522 29.29 29.29 0 0 0-2.121-.13c-1.333-.048-2.63.084-3.958.25-1.357.166-4.25.254-4.67 2.005-.21.894-1.193 2.732-.37 3.54.874.86 2.294.501 3.366.395 1.48-.151 2.946-.433 4.423-.585 1.087-.11 2.507-.357 3.4.462 1.102 1.017-1.814 1.983-2.396 2.238-2.203.962-4.511 1.653-6.72 2.596-2.072.885-4.151 1.736-6.172 2.728-.93.453-1.798 1.011-2.67 1.554l-.421-.294-2.547.278-2.555.215c-1.706.145-3.436.194-5.151.279-.856.031-2.2.063-2.872-.59-1.475-1.437-.653-3.428.32-4.815 1.066-1.51 2.564-2.63 4.101-3.581a14.538 14.538 0 0 1 3.338-1.516 16.466 16.466 0 0 1 2.414-.57c.118.232.25.463.377.69.065.13 1.974-.69 2.155-.787.587-.312 1.405-.938 1.42-1.696.029-.92-.745-1.838-1.448-2.298-.784-.514-1.674-.683-2.597-.692a20.306 20.306 0 0 0-2.991.181 15.138 15.138 0 0 0-5.283 1.837 16.01 16.01 0 0 0-3.754 2.985 10.586 10.586 0 0 0-1.348 1.82c-.492.832-.851 1.754-1.138 2.68-.78 2.565-.54 5.76.587 8.177.775 1.664 1.973 3.107 3.508 4.076 1.935 1.223 4.383 1.625 6.6 1.188a12.9 12.9 0 0 0 2.608-.784c.907-.377 1.79-.656 2.638-1.158.166-.09 1.972-1.152 2.076-1.011.282.377.447.838.752 1.198.293.349.665.668 1.017.94.746.574 1.591.801 2.503.91a63.6 63.6 0 0 0 6.899.455c1.832.025 3.692-.102 5.516-.278 1.18-.113 2.364-.272 3.542-.42 2.995-.377 5.471-1.059 8.716-2.495a9.061 9.061 0 0 0 3.066-2.392 7.213 7.213 0 0 0-1.115-.57c-2.362-.971-5.053-1.012-7.56-.682-1.157.15-2.31.264-3.467.37-.502.049-1.004.088-1.508.125m-39.83 2.916a3.061 3.061 0 0 0-.142-1.191c-.32-.864-1.212-1.745-2.097-1.91-.801-.148-1.765.007-2.417.534-.353.287-.739.749-.924 1.179-.405.942-.363 2.343.233 3.177 1.006 1.413 3.135 1.413 4.32.268.57-.547.968-1.243 1.028-2.057" fill="#000"/></g></svg>