<?xml version="1.0"?><svg xmlns="http://www.w3.org/2000/svg" width="40" height="40" viewBox="0 0 40 40"><path fill="#E8DDCD" d="m39.9 18.9c-8.8 0.9-15.9 7.5-17.5 16.1-0.3 1.2-0.4 2.5-0.4 3.8 0 0.3 0 0.7 0.1 1.1 2.7-0.3 5.4-1.2 7.7-2.5 6.1-3.4 10.2-9.9 10.2-17.4 0-0.4 0-0.8-0.1-1.1m-22.3 16.1c-1.6-8.6-8.7-15.2-17.5-16.1-0.1 0.3-0.1 0.7-0.1 1.1 0 7.5 4.1 14 10.2 17.4 2.3 1.3 5 2.2 7.7 2.5 0.1-0.4 0.1-0.8 0.1-1.1 0-1.3-0.1-2.6-0.4-3.8"></path><path fill="#333" d="m22.4 35c-0.8-0.1-1.6-0.1-2.4-0.1-0.8 0-1.6 0-2.4 0.1 0.3 1.2 0.4 2.5 0.4 3.8 0 0.3 0 0.7-0.1 1.1 0.7 0.1 1.4 0.1 2.1 0.1 0.7 0 1.4 0 2.1-0.1-0.1-0.4-0.1-0.8-0.1-1.1 0-1.3 0.1-2.6 0.4-3.8"></path><path fill="#E30613" d="m40 0l-9.6 2.9c-3-1.8-6.6-2.9-10.4-2.9-3.8 0-7.4 1.1-10.4 2.9l-9.6-2.9 2.9 9.6c-1.6 2.7-2.7 5.9-2.8 9.3 8.8 0.9 15.9 7.5 17.5 16.1 0.8-0.1 1.6-0.1 2.4-0.1 0.8 0 1.6 0 2.4 0.1 1.6-8.6 8.7-15.2 17.5-16.1-0.1-3.4-1.2-6.6-2.8-9.3l2.9-9.6z"></path></svg>