<?xml version="1.0"?><svg xmlns="http://www.w3.org/2000/svg" width="40" height="40" viewBox="0 0 40 40"><path fill="#A48A7B" d="m10.5 38.9c5.9 0 11-3.3 13.6-8.2 1-0.3 1.9-0.7 2.8-1.2 4.6-2.6 7.8-7.6 7.8-13.2 0-0.3-0.1-0.6-0.1-0.9 0-0.5 0-0.9-0.1-1.4-0.3-2.2-1.1-4.2-2.3-6l0 0c2.2 3.2 3.5 7.2 3.5 11.4 0 10.8-8.2 19.5-18.3 19.5v0h-6.9z m13.6-8.2c-2.6 4.9-7.7 8.1-13.6 8.1h-6.2v-22.5c0 5.6 3.1 10.6 7.8 13.2 1.7 1 3.7 1.7 5.8 1.9 0.6 0 1.1 0 1.6 0 0.5 0 1 0 1.5 0 1.1-0.1 2.1-0.4 3.1-0.7"></path><path fill="#fff" d="m27.1 18.5c-1.6 0-2.9-1.3-2.9-2.9 0-1.5 1.3-2.8 2.9-2.8 1.5 0 2.8 1.3 2.8 2.8 0 1.6-1.3 2.9-2.8 2.9"></path><path fill="#fff" d="m11.9 12.8c-1.6 0-2.8 1.3-2.8 2.8 0 1.6 1.2 2.9 2.8 2.9 1.6 0 2.9-1.3 2.9-2.9 0-1.5-1.3-2.8-2.9-2.8z m0-4.7c1 0 1.9 0.1 2.7 0.5-0.9-0.3-1.9-0.5-2.8-0.5h0.1z"></path><path fill="#A48A7B" d="m4.5 14.1c1.5-7.3 7.3-13 15-13 5.3 0 10 2.7 12.7 6.9 1.2 1.8 2 3.8 2.3 6-0.8-3.4-3.8-5.9-7.4-5.9-2.8 0-5.8 2.1-7.1 4.3-1.7-1.5-3.2-3.2-5.4-3.8-0.8-0.4-1.7-0.5-2.7-0.5h-0.1c-3.6 0-6.6 2.6-7.3 6z"></path><path fill="#E8DDCD" d="m34.6 15.4c0-0.5 0-0.9-0.1-1.4-0.8-3.4-3.8-5.9-7.4-5.9-2.8 0-5.2 1.4-6.5 3.7-0.7 1.1-1.1 2.4-1.1 3.8 0-3.2-2-6-4.9-7-0.9-0.3-1.9-0.5-2.8-0.5-3.6 0-6.6 2.6-7.3 6 0 0.1 0 0.1 0 0.1-0.1 0.4-0.1 0.8-0.1 1.2-0.1 0.1-0.1 0.2-0.1 0.2 0 0.3 0 0.5 0 0.7 0 5.6 3.1 10.6 7.8 13.2 1.7 1 3.7 1.7 5.8 1.9 0.6 0 1.1 0 1.6 0 0.5 0 1 0 1.6 0 1-0.1 2-0.4 3-0.7 1-0.3 1.9-0.7 2.8-1.2 4.6-2.6 7.8-7.6 7.8-13.2 0-0.3-0.1-0.6-0.1-0.9z m-22.7 3.1c-1.6 0-2.8-1.3-2.8-2.9 0-1.5 1.2-2.8 2.8-2.8 1.6 0 2.9 1.3 2.9 2.8 0 1.6-1.3 2.9-2.9 2.9z m15.2 0c-1.6 0-2.9-1.3-2.9-2.9s1.3-2.8 2.9-2.8c1.5 0 2.8 1.3 2.8 2.8s-1.3 2.9-2.8 2.9z"></path><path fill="#332221" d="m11.9 19.6c-2.2 0-3.9-1.8-3.9-4 0-2.1 1.7-3.9 3.9-3.9 2.2 0 4 1.8 4 3.9 0 2.2-1.8 4-4 4m0-5.7c-1 0-1.8 0.8-1.8 1.7 0 1 0.8 1.8 1.8 1.8 1 0 1.8-0.8 1.8-1.8 0-0.9-0.8-1.7-1.8-1.7m15.2 5.7c-2.2 0-4-1.8-4-4 0-2.1 1.8-3.9 4-3.9 2.1 0 3.9 1.8 3.9 3.9 0 2.2-1.8 4-3.9 4m0-5.7c-1 0-1.8 0.8-1.8 1.7 0 1 0.8 1.8 1.8 1.8 1 0 1.7-0.8 1.7-1.8 0-0.9-0.7-1.7-1.7-1.7"></path><path fill="#332221" d="m33.1 7.4c0-0.1-0.1-0.1-0.1-0.2-3-4.5-8.1-7.2-13.5-7.2-8.1 0-15 6-16.1 14v0l0 0.1c-0.1 0.5-0.1 0.8-0.1 1.2 0 0.1 0 0.2 0 0.3l0 0c-0.1 0.2-0.1 0.5-0.1 0.7v23.6h13.8c0.2 0.1 0.3 0.1 0.4 0.1 10.7 0 19.4-9.2 19.4-20.6 0-4.3-1.3-8.5-3.7-12z m-13.6-5.2c4.5 0 8.6 2.1 11.3 5.6-1.2-0.5-2.4-0.8-3.7-0.8-3.1 0-5.9 1.6-7.4 4.2-0.1 0.1-0.1 0.2-0.2 0.3-1-1.8-2.6-3.2-4.5-3.9-1-0.4-2-0.6-3.1-0.6h-0.2c-1.2 0-2.4 0.3-3.4 0.8 2.6-3.4 6.7-5.6 11.2-5.6z m-7.6 6.9c0.8 0 1.6 0.2 2.3 0.5 2.5 0.9 4.2 3.4 4.2 6v5.7c0 0.6 0.5 1 1.1 1 0.6 0 1.1-0.4 1.1-1v-5.7c0-1.1 0.3-2.3 0.9-3.3 1.2-1.9 3.3-3.2 5.6-3.2 3 0 5.7 2.2 6.3 5.1 0.1 0.4 0.1 0.9 0.1 1.3l0.1 0.3c0 0.1 0 0.3 0 0.5 0 5-2.8 9.7-7.2 12.2-0.8 0.5-1.7 0.9-2.6 1.2l0 0 0 0c-1 0.3-1.9 0.5-2.9 0.6-0.9 0.1-1.9 0.1-2.9 0-1.9-0.2-3.7-0.8-5.4-1.8-4.5-2.5-7.2-7.2-7.2-12.2 0-0.2 0-0.3 0-0.5l0-0.1c0 0 0-0.1 0-0.1 0 0 0-0.1 0-0.1 0-0.4 0.1-0.7 0.1-1l0-0.1 0.1-0.2c0.6-2.9 3.2-5 6.3-5.1z m-1.4 28.7h-5.1v-13.5c1.4 2.5 3.5 4.7 6.1 6.1 2 1.1 4.1 1.8 6.3 2 0.6 0.1 1.1 0.1 1.7 0.1 0.6 0 1.1 0 1.7-0.1 0.1 0 0.3 0 0.5 0-2.7 3.3-6.8 5.4-11.2 5.4z m8.2 0c2.5-1.5 4.6-3.6 6.1-6.2 0.9-0.3 1.8-0.7 2.7-1.2 3-1.7 5.4-4.3 6.8-7.4-1.5 8-7.8 14.2-15.6 14.8z"></path></svg>