<?xml version="1.0"?><svg xmlns="http://www.w3.org/2000/svg" width="40" height="40" viewBox="0 0 40 40"><defs><clipPath id="a"><path d="m523.2 264.4h49.7v-40.3h-49.7v40.3z"></path></clipPath><clipPath><path d="m523.2 264.4h49.7v-40.3h-49.7v40.3z"></path></clipPath><clipPath><path d="m523.2 264.4h49.7v-40.3h-49.7v40.3z"></path></clipPath><clipPath><path d="m523.2 264.4h49.7v-40.3h-49.7v40.3z"></path></clipPath><clipPath><path d="m523.2 264.4h49.7v-40.3h-49.7v40.3z"></path></clipPath><clipPath><path d="m523.2 264.4h49.7v-40.3h-49.7v40.3z"></path></clipPath><clipPath><path d="m523.2 264.4h49.7v-40.3h-49.7v40.3z"></path></clipPath><clipPath><path d="m523.2 264.4h49.7v-40.3h-49.7v40.3z"></path></clipPath><clipPath><path d="m523.2 264.4h49.7v-40.3h-49.7v40.3z"></path></clipPath><clipPath><path d="m523.2 264.4h49.7v-40.3h-49.7v40.3z"></path></clipPath><clipPath><path d="m523.2 264.4h49.7v-40.3h-49.7v40.3z"></path></clipPath><clipPath><path d="m523.2 264.4h49.7v-40.3h-49.7v40.3z"></path></clipPath><clipPath><path d="m523.2 264.4h49.7v-40.3h-49.7v40.3z"></path></clipPath><clipPath><path d="m523.2 264.4h49.7v-40.3h-49.7v40.3z"></path></clipPath><clipPath><path d="m523.2 264.4h49.7v-40.3h-49.7v40.3z"></path></clipPath><clipPath><path d="m523.2 264.4h49.7v-40.3h-49.7v40.3z"></path></clipPath></defs><g><path style="isolation:auto;mix-blend-mode:normal;solid-color:#000000;solid-opacity:1" color="#000" overflow="visible" fill="#fff" enable-background="accumulate" d="m-274-101.4h950v993.7h-950z"></path><g><path d="m120.5 56.7v54.6h-99.3v-16.5c-6.9 1-14 1.8-21.2 2.2v24.4c0 11.3 9.1 20.4 20.4 20.4h101c11.3 0 20.4-9.1 20.4-20.4v-83.2c-6.3 6.6-13.4 12.8-21.3 18.5" fill="#364b7b"></path><path d="m21.3 30.6h99.2v26.1c7.9-5.7 15-11.9 21.3-18.5v-17.8c0-11.2-9.1-20.4-20.4-20.4h-101c-11.3 0-20.4 9.2-20.4 20.4v76.7c7.2-0.5 14.3-1.2 21.3-2.3v-64.2z" fill="#3f5b98"></path><g><path d="m123.1 113.1h-104v-84.6h104v84.6z" fill="#c7c7c6" clip-path="url(#a)"></path></g><path d="m107.9 74.9v23.9h-74v-6.1c-4.2 0.8-8.4 1.5-12.7 2.1v16.5h99.3v-54.6c-5.6 4-11.5 7.8-17.8 11.4l5.2 6.8z" fill="#ededed"></path><path d="m107.9 98.8v-23.9l-5.2-6.8c-20 11.2-43.3 19.7-68.8 24.6v6.1h74z" fill="#3f5b9b"></path><path d="m21.3 30.6v64.2c4.2-0.6 8.5-1.3 12.6-2.1v-17.7l21.7-29 19 26.1 18.2-17.2 9.9 13.2c6.3-3.5 12.2-7.3 17.8-11.4v-26.1h-99.2z" fill="#fff"></path><path d="m92.7 54.9l-18.1 17.2-19-26.1-21.7 28.9v17.8c25.5-4.9 48.8-13.4 68.8-24.6l-10-13.2z" fill="#6181b7"></path></g></g></svg>