<?xml version="1.0"?><svg xmlns="http://www.w3.org/2000/svg" width="40" height="40" viewBox="0 0 40 40"><path fill="#2D95D3" d="m20.1 0.5c-2.8 0-5.4 0.6-7.8 1.5-2.8 1.1-5.2 2.7-7.1 4.8 1.5 0.3 2.9 0.8 4.1 1.5 1.2 0.7 2.3 1.6 3.2 2.6 0.4 0.4 0.7 0.8 1.1 1.3 1.6 2.2 2.5 4.9 2.5 7.8 0 2.4-0.6 4.7-1.8 6.7 0.7 0.9 1.2 1.9 1.4 3 0.1 0.4 0.1 0.9 0.1 1.3v0c0 1.4-0.4 2.6-1 3.7-0.8 1.3-2 2.4-3.4 3 1.7 0.7 3.5 1.2 5.5 1.5 1 0.2 2 0.3 3 0.3 11.7 0 20.1-8.8 20.1-19.5v-0.1c0-10.7-8.3-19.4-19.9-19.4m4.9 15.2c-0.5 0-0.9-0.1-1.3-0.2-1.3-0.5-2.2-1.8-2.2-3.3 0-0.1 0-0.1 0-0.2 0.1-1.8 1.6-3.3 3.5-3.3 1.9 0 3.5 1.6 3.5 3.5 0 1.9-1.6 3.5-3.5 3.5"></path><path fill="#29235C" d="m13.6 12.2c-0.4-0.5-0.7-0.9-1.1-1.3-0.9-1-2-1.9-3.2-2.6-1.2-0.7-2.6-1.2-4.1-1.5-3.1 3.3-5 7.6-5.2 12.4 0 0.3 0 0.6 0 1 0 3 0.7 5.8 1.9 8.4 0.7-1.9 2.2-3.4 4-4.2 0.9-0.3 1.8-0.5 2.7-0.5 0.3 0 0.5 0 0.7 0 0.7 0.1 1.4 0.3 2 0.5 1.2 0.5 2.2 1.3 3 2.3 1.2-2 1.8-4.3 1.8-6.7 0-2.9-0.9-5.6-2.5-7.8m11 2.4c1.1 0 1.9-0.9 1.9-2 0-1.1-0.8-2-1.9-2-1.1 0-2 0.9-2 2 0 1.1 0.9 2 2 2"></path></svg>