<?xml version="1.0"?><svg xmlns="http://www.w3.org/2000/svg" width="40" height="40" viewBox="0 0 40 40"><g><path d="m137.4 118.5c0 10.6-8.6 19.1-19.2 19.1h-94.7c-10.6 0-19.2-8.5-19.2-19.1v-94.8c0-10.5 8.6-19.1 19.2-19.1h94.7c10.6 0 19.2 8.6 19.2 19.1v94.8z" fill="#e6332a"></path><g><g><g><path d="m26.6 75.1c-1.3 0-2.4-1.1-2.4-2.4 0-1.3 1.1-2.4 2.4-2.4h88.5c1.3 0 2.4 1.1 2.4 2.4 0 1.3-1.1 2.4-2.4 2.4h-88.5z" fill="#ca2f24"></path><path d="m115.1 76h-88.5c-1.8 0-3.3-1.5-3.3-3.3 0-1.8 1.5-3.3 3.3-3.3h88.5c1.8 0 3.3 1.5 3.3 3.3 0 1.8-1.5 3.3-3.3 3.3z m394.6 410.2c-0.7 0-1.4 0.7-1.4 1.5 0 0.7 0.7 1.4 1.4 1.4h88.5c0.8 0 1.5-0.7 1.5-1.4 0-0.8-0.7-1.5-1.5-1.5h-88.5z" fill="#ca2f24"></path></g><g><circle cx="313.92247183048687" cy="281.5165473743888" r="4.4457042968842275" fill="#ca2f24" transform="matrix(1.686 0 0 1.686 -514.615 -425.37)"></circle><path d="m43 82.1c-5.1 0-9.3-4.2-9.3-9.4 0-5.1 4.2-9.3 9.3-9.3 5.2 0 9.4 4.2 9.4 9.3 0 5.2-4.2 9.4-9.4 9.4z m270.9 190c-3.1 0-5.6 2.5-5.6 5.6s2.5 5.7 5.6 5.7c3.1 0 5.7-2.6 5.7-5.7 0-3.1-2.6-5.6-5.7-5.6z" fill="#ca2f24"></path></g></g><g><g><path d="m26.6 96.4c-1.3 0-2.4-1.1-2.4-2.4 0-1.3 1.1-2.3 2.4-2.3l88.5 0c1.3 0 2.4 1 2.4 2.3s-1.1 2.4-2.4 2.4h-88.5z" fill="#ca2f24"></path><path d="m115.1 97.3h-88.5c-1.8 0-3.3-1.5-3.3-3.3 0-1.8 1.5-3.3 3.3-3.3l88.5 0c1.8 0 3.3 1.5 3.3 3.3 0 1.8-1.5 3.3-3.3 3.3z m394.6 392.9c-0.7 0-1.4 0.6-1.4 1.4 0 0.8 0.7 1.5 1.4 1.5h88.5c0.8 0 1.5-0.7 1.5-1.5 0-0.8-0.7-1.4-1.5-1.4l-88.5 0z" fill="#ca2f24"></path></g><g><path d="m79.8 94c0 4.2-3.4 7.5-7.5 7.5-4.1 0-7.5-3.3-7.5-7.5 0-4.1 3.4-7.5 7.5-7.5 4.1 0 7.5 3.4 7.5 7.5z" fill="#ca2f24"></path><path d="m72.3 103.4c-5.1 0-9.3-4.2-9.3-9.4 0-5.1 4.2-9.3 9.3-9.3 5.2 0 9.3 4.2 9.3 9.3 0 5.2-4.1 9.4-9.3 9.4z m259 181.3c-3.1 0-5.7 2.5-5.7 5.7 0 3.1 2.6 5.6 5.7 5.6 3.1 0 5.6-2.5 5.6-5.6 0-3.2-2.5-5.7-5.6-5.7z" fill="#ca2f24"></path></g></g><g><g><path d="m26.6 53.8c-1.3 0-2.4-1.1-2.4-2.4 0-1.3 1.1-2.4 2.4-2.4h88.5c1.3 0 2.4 1.1 2.4 2.4 0 1.3-1.1 2.4-2.4 2.4h-88.5z" fill="#ca2f24"></path><path d="m115.1 54.7h-88.5c-1.8 0-3.3-1.5-3.3-3.3 0-1.8 1.5-3.3 3.3-3.3h88.5c1.8 0 3.3 1.5 3.3 3.3 0 1.8-1.5 3.3-3.3 3.3z m153.1 211.4c-0.8 0-1.5 0.6-1.5 1.4 0 0.8 0.7 1.5 1.5 1.5h88.5c0.8 0 1.4-0.7 1.4-1.5 0-0.8-0.6-1.4-1.4-1.4h-88.5z" fill="#ca2f24"></path></g><g><circle cx="344.10034724682873" cy="268.876762809156" r="4.4457042968842275" fill="#ca2f24" transform="matrix(1.686 0 0 1.686 -514.615 -425.37)"></circle><path d="m93.9 60.7c-5.2 0-9.3-4.1-9.3-9.3 0-5.2 4.1-9.3 9.3-9.3 5.1 0 9.3 4.1 9.3 9.3 0 5.2-4.2 9.3-9.3 9.3z m500.4 412.4c-3.1 0-5.6 2.5-5.6 5.7s2.5 5.6 5.6 5.6c3.1 0 5.6-2.5 5.6-5.6 0-3.2-2.5-5.7-5.6-5.7z" fill="#ca2f24"></path></g></g></g><g><g><g><path d="m26.6 71.9c-1.3 0-2.4-1.1-2.4-2.4s1.1-2.3 2.4-2.3h88.5c1.3 0 2.4 1 2.4 2.3s-1.1 2.4-2.4 2.4h-88.5z" fill="#fff"></path><path d="m115.1 72.8h-88.5c-1.8 0-3.3-1.5-3.3-3.3 0-1.8 1.5-3.3 3.3-3.3h88.5c1.8 0 3.3 1.5 3.3 3.3 0 1.8-1.5 3.3-3.3 3.3z m394.6 412.8c-0.7 0-1.4 0.7-1.4 1.5 0 0.7 0.7 1.4 1.4 1.4h88.5c0.8 0 1.5-0.7 1.5-1.4 0-0.8-0.7-1.5-1.5-1.5h-88.5z" fill="#fff"></path></g><g><circle cx="313.92247183048687" cy="279.6258238253845" r="4.4457042968842275" fill="#e3e3e3" transform="matrix(1.686 0 0 1.686 -514.615 -425.37)"></circle><path d="m43 78.9c-5.1 0-9.3-4.2-9.3-9.4 0-5.1 4.2-9.3 9.3-9.3 5.2 0 9.4 4.2 9.4 9.3 0 5.2-4.2 9.4-9.4 9.4z m270.9 191.3c-3.1 0-5.6 2.5-5.6 5.6 0 3.1 2.5 5.7 5.6 5.7 3.1 0 5.7-2.6 5.7-5.7 0-3.1-2.6-5.6-5.7-5.6z" fill="#e3e3e3"></path></g></g><g><g><path d="m26.6 93.2c-1.3 0-2.4-1.1-2.4-2.4 0-1.3 1.1-2.3 2.4-2.3h88.5c1.3 0 2.4 1 2.4 2.3 0 1.3-1.1 2.4-2.4 2.4h-88.5z" fill="#fff"></path><path d="m115.1 94.1h-88.5c-1.8 0-3.3-1.5-3.3-3.3 0-1.8 1.5-3.3 3.3-3.3h88.5c1.8 0 3.3 1.5 3.3 3.3 0 1.8-1.5 3.3-3.3 3.3z m153.1 195.4c-0.8 0-1.5 0.6-1.5 1.4 0 0.8 0.7 1.5 1.5 1.5h88.5c0.8 0 1.4-0.7 1.4-1.5 0-0.8-0.6-1.4-1.4-1.4h-88.5z" fill="#fff"></path></g><g><circle cx="331.2904826022252" cy="292.26655327994706" r="4.4457042968842275" fill="#e3e3e3" transform="matrix(1.686 0 0 1.686 -514.615 -425.37)"></circle><path d="m72.3 100.2c-5.1 0-9.3-4.2-9.3-9.4s4.2-9.3 9.3-9.3c5.2 0 9.3 4.2 9.3 9.3s-4.1 9.4-9.3 9.4z m259 182.6c-3.1 0-5.7 2.5-5.7 5.7s2.6 5.6 5.7 5.6c3.1 0 5.6-2.5 5.6-5.6 0-3.2-2.5-5.7-5.6-5.7z" fill="#e3e3e3"></path></g></g><g><g><path d="m26.6 50.6c-1.3 0-2.4-1.1-2.4-2.4 0-1.3 1.1-2.4 2.4-2.4h88.5c1.3 0 2.4 1.1 2.4 2.4 0 1.3-1.1 2.4-2.4 2.4h-88.5z" fill="#fff"></path><path d="m115.1 51.5h-88.5c-1.8 0-3.3-1.5-3.3-3.3 0-1.8 1.5-3.3 3.3-3.3h88.5c1.8 0 3.3 1.5 3.3 3.3 0 1.8-1.5 3.3-3.3 3.3z m394.6 430.1c-0.7 0-1.4 0.7-1.4 1.5 0 0.8 0.7 1.4 1.4 1.4h88.5c0.8 0 1.5-0.6 1.5-1.4 0-0.8-0.7-1.5-1.5-1.5h-88.5z" fill="#fff"></path></g><g><circle cx="344.10034724682873" cy="266.98698414948154" r="4.4457042968842275" fill="#e3e3e3" transform="matrix(1.686 0 0 1.686 -514.615 -425.37)"></circle><path d="m93.9 57.6c-5.2 0-9.3-4.2-9.3-9.4 0-5.1 4.1-9.3 9.3-9.3 5.1 0 9.3 4.2 9.3 9.3 0 5.2-4.2 9.4-9.3 9.4z m250.2 199.9c-3.1 0-5.6 2.6-5.6 5.7 0 3.1 2.5 5.6 5.6 5.6 3.1 0 5.6-2.5 5.6-5.6 0-3.1-2.5-5.7-5.6-5.7z" fill="#e3e3e3"></path></g></g></g></g></svg>