<?xml version="1.0" encoding="utf-8"?>
<svg version="1.1" id="Layer_1" x="0px" y="0px"
	 width="44px" height="44px" viewBox="0 0 44 44" enable-background="new 0 0 44 44">
    <path fill="#E8DDCD" d="M43.937,20.753c-9.712,0.99-17.543,8.303-19.34,17.756c-0.255,1.34-0.4,2.717-0.4,4.13 c0,0.421,0.039,0.832,0.063,1.246c3.071-0.313,5.947-1.27,8.512-2.715C39.47,37.4,44,30.233,44,22.001 C44,21.58,43.96,21.169,43.937,20.753"/>
    <path fill="#E8DDCD" d="M19.403,38.509c-1.796-9.452-9.627-16.766-19.339-17.756C0.04,21.169,0,21.58,0,22.001 c0,8.233,4.53,15.399,11.227,19.17c2.565,1.444,5.442,2.401,8.514,2.714c0.024-0.414,0.063-0.825,0.063-1.246 C19.804,41.225,19.657,39.849,19.403,38.509"/>
    <path fill="#333333" d="M24.597,38.509c-0.854-0.1-1.718-0.166-2.598-0.166c-0.88,0-1.744,0.066-2.596,0.166 c0.255,1.34,0.401,2.716,0.401,4.13c0,0.421-0.039,0.832-0.063,1.246C20.482,43.96,21.236,44,21.999,44 c0.763,0,1.517-0.04,2.261-0.115c-0.024-0.414-0.063-0.825-0.063-1.246C24.196,41.225,24.343,39.849,24.597,38.509"/>
    <path fill="#E30613" d="M44,0L33.469,3.237C30.131,1.187,26.207,0,21.999,0c-4.207,0-8.131,1.187-11.468,3.236L0,0l3.242,10.548 c-1.832,3.004-2.97,6.479-3.179,10.205c9.712,0.99,17.543,8.304,19.339,17.756c0.853-0.1,1.716-0.166,2.596-0.166 c0.88,0,1.744,0.066,2.598,0.166c1.797-9.452,9.628-16.766,19.34-17.756c-0.21-3.725-1.347-7.201-3.179-10.205L44,0z"/>
</svg>
